<?xml version="1.0" encoding="utf-8"?>
<!-- Svg Vector Icons : http://www.onlinewebfonts.com/icon -->
<!DOCTYPE svg PUBLIC "-//W3C//DTD SVG 1.1//EN" "http://www.w3.org/Graphics/SVG/1.1/DTD/svg11.dtd">
<svg version="1.1" xmlns="http://www.w3.org/2000/svg" xmlns:xlink="http://www.w3.org/1999/xlink" x="0px" y="0px" viewBox="0 0 1000 1000" enable-background="new 0 0 1000 1000" xml:space="preserve">
<metadata> Svg Vector Icons : http://www.onlinewebfonts.com/icon </metadata>
<g><path d="M904,156.2c-111.2-110-288.8-112.3-404-8.8C384.8,43.9,207.1,46.3,96,156.2c-114.6,113.3-114.6,297,0,410.4c32.8,32.3,338.6,334.8,338.6,334.8c36.3,35.8,94.9,35.8,131,0c0,0,334.9-331.1,338.6-334.8C1018.6,453.3,1018.6,269.5,904,156.2z M860.4,523.4L521.7,858.2c-12,12-31.6,12-43.6,0L139.6,523.4c-90.4-89.3-90.4-234.7,0-324c87.1-86.1,227.1-89.1,318.8-6.8l41.6,37.3l41.5-37.3c91.7-82.3,231.8-79.3,318.9,6.8C950.7,288.7,950.7,434.1,860.4,523.4z M293.2,224.7C293.2,224.7,293.2,224.7,293.2,224.7C221.3,224.7,163,283,163,354.7c0,8.5,6.9,15.3,15.3,15.3s15.3-6.9,15.3-15.3c0-54.9,44.6-99.3,99.5-99.3c8.5,0,15.3-6.9,15.3-15.3C308.6,231.5,301.7,224.7,293.2,224.7z"/></g>
</svg>